<?xml version="1.0" standalone="no"?>
<!DOCTYPE svg PUBLIC "-//W3C//DTD SVG 20010904//EN"
 "http://www.w3.org/TR/2001/REC-SVG-20010904/DTD/svg10.dtd">
<svg version="1.0" xmlns="http://www.w3.org/2000/svg"
 width="500.000000pt" height="500.000000pt" viewBox="0 0 500.000000 500.000000"
 preserveAspectRatio="xMidYMid meet">

<g transform="translate(0.000000,500.000000) scale(0.100000,-0.100000)"
fill="#000000" stroke="none">
<path d="M2446 3434 c-47 -49 -100 -140 -111 -191 l-6 -31 -62 29 c-69 32
-198 56 -241 45 l-28 -7 4 -82 c11 -190 111 -330 286 -398 46 -19 82 -24 193
-27 164 -5 243 14 341 81 110 75 173 192 185 342 8 97 0 103 -118 88 -59 -8
-109 -21 -148 -40 l-60 -29 -6 25 c-21 82 -134 241 -171 241 -8 0 -34 -21 -58
-46z m109 -26 c144 -167 144 -389 0 -555 -20 -24 -43 -43 -50 -43 -21 0 -95
90 -122 147 -53 115 -53 231 0 346 27 57 101 147 122 147 7 0 30 -19 50 -42z
m-364 -164 c30 -9 70 -24 90 -35 l36 -18 5 -83 c7 -113 34 -174 132 -297 9
-12 1 -13 -54 -9 -216 19 -380 201 -380 424 l0 34 58 0 c32 0 83 -7 113 -16z
m793 0 c11 -30 -14 -159 -44 -220 -59 -122 -195 -212 -333 -222 l-71 -5 42 48
c71 81 111 186 112 292 l0 53 50 25 c62 31 109 43 181 44 43 1 58 -3 63 -15z"/>
<path d="M1033 2680 l-11 -30 25 20 c20 16 41 20 99 20 l74 0 0 -220 c0 -213
1 -220 20 -220 19 0 20 7 20 220 l0 220 74 0 c59 0 78 -4 99 -20 l26 -21 -10
31 -11 30 -197 0 -197 0 -11 -30z"/>
<path d="M2670 2480 c0 -223 1 -230 20 -230 19 0 20 7 20 110 l0 110 43 0 42
0 44 -96 c42 -89 69 -124 98 -124 7 0 -11 46 -43 110 -29 61 -54 112 -54 115
0 3 6 5 14 5 8 0 28 13 45 29 43 41 43 96 0 145 -36 41 -79 56 -166 56 l-63 0
0 -230z m172 193 c35 -31 51 -80 38 -119 -17 -51 -53 -74 -116 -74 l-54 0 0
111 0 112 56 -6 c33 -3 64 -13 76 -24z"/>
<path d="M1695 2660 c-4 -7 -3 -16 3 -22 14 -14 45 -2 40 15 -6 16 -34 21 -43
7z"/>
<path d="M2075 2660 c-4 -7 -3 -16 3 -22 14 -14 45 -2 40 15 -6 16 -34 21 -43
7z"/>
<path d="M1584 2551 c-18 -11 -35 -25 -40 -33 -4 -7 5 -3 20 10 35 27 52 28
66 2 13 -24 28 -26 37 -4 4 11 -1 22 -12 30 -25 18 -34 18 -71 -5z"/>
<path d="M1980 2528 c22 -22 44 -37 50 -33 16 10 -24 51 -60 64 -27 9 -27 8
10 -31z"/>
<path d="M2295 2561 c44 -9 55 -40 55 -168 0 -88 3 -115 16 -127 18 -19 55
-21 72 -4 18 18 14 30 -6 19 -33 -17 -40 1 -44 117 -3 114 -3 114 -36 143 -20
18 -42 29 -60 28 l-27 -1 30 -7z"/>
<path d="M3181 2551 c22 -18 24 -28 29 -150 5 -139 10 -151 56 -151 20 0 44
17 44 32 0 5 -8 4 -18 -1 -33 -17 -40 1 -44 117 -3 114 -3 114 -36 143 -18 16
-37 29 -43 29 -6 0 -1 -9 12 -19z"/>
<path d="M3413 2550 c-78 -47 -70 -133 17 -174 l35 -17 -27 21 c-54 42 -56
113 -6 168 26 27 22 28 -19 2z"/>
<path d="M3503 2542 c13 -15 28 -37 32 -50 9 -30 -12 -88 -38 -107 -30 -21 -2
-19 30 2 34 23 53 68 42 105 -8 31 -1 38 36 35 27 -3 31 17 5 21 -12 2 -30 -4
-39 -12 -16 -15 -19 -15 -35 3 -10 10 -27 21 -38 24 -19 5 -19 4 5 -21z"/>
<path d="M3745 2554 c-122 -63 -132 -215 -19 -285 39 -24 58 -21 21 4 -53 35
-74 143 -41 213 34 71 97 93 148 53 77 -61 83 -184 11 -256 -38 -38 -32 -42
16 -10 48 31 83 105 74 155 -12 71 -91 142 -157 142 -13 0 -36 -7 -53 -16z"/>
<path d="M1490 2405 c0 -148 1 -155 20 -155 19 0 20 7 20 155 0 148 -1 155
-20 155 -19 0 -20 -7 -20 -155z"/>
<path d="M1694 2544 c3 -9 6 -78 6 -155 0 -117 2 -139 15 -139 13 0 15 24 15
155 0 151 -1 155 -21 155 -15 0 -19 -4 -15 -16z"/>
<path d="M1850 2534 c-43 -36 -61 -77 -62 -135 0 -97 81 -174 158 -149 18 6
37 16 40 22 4 6 -1 6 -14 -1 -34 -18 -77 -13 -100 12 -22 23 -52 96 -52 126 0
38 24 97 50 123 36 35 22 37 -20 2z"/>
<path d="M2074 2544 c3 -9 6 -78 6 -155 0 -117 2 -139 15 -139 13 0 15 24 15
155 0 151 -1 155 -21 155 -15 0 -19 -4 -15 -16z"/>
<path d="M2206 2521 c-18 -19 -26 -36 -22 -46 9 -24 31 -12 28 15 -1 13 5 31
14 42 28 30 10 20 -20 -11z"/>
<path d="M3066 2521 c-18 -19 -26 -36 -22 -46 9 -24 31 -12 28 15 -1 13 5 31
14 42 28 30 10 20 -20 -11z"/>
<path d="M2234 2386 c-58 -25 -82 -87 -46 -118 31 -27 53 -29 98 -9 54 24 58
33 7 16 -55 -19 -78 -7 -78 41 0 32 5 42 34 61 38 26 32 29 -15 9z"/>
<path d="M3094 2386 c-58 -25 -82 -87 -46 -118 31 -27 53 -29 98 -9 54 24 58
33 7 16 -55 -19 -78 -7 -78 41 0 32 5 42 34 61 38 26 32 29 -15 9z"/>
<path d="M3358 2339 c-26 -14 -22 -34 11 -61 23 -20 41 -25 92 -27 74 -2 109
-21 109 -56 0 -25 -41 -64 -69 -66 -9 0 -11 -3 -4 -5 16 -7 89 32 97 51 13 35
5 64 -25 89 -26 22 -40 26 -98 26 -73 0 -109 16 -98 44 7 19 7 19 -15 5z"/>
<path d="M3362 2234 c-46 -32 -10 -94 63 -109 l30 -6 -31 16 c-43 22 -61 57
-46 90 14 30 13 30 -16 9z"/>
<path d="M3788 2243 c6 -2 18 -2 25 0 6 3 1 5 -13 5 -14 0 -19 -2 -12 -5z"/>
<path d="M1520 1705 c0 -33 4 -45 15 -45 8 0 15 8 15 18 1 16 1 16 14 0 7 -10
19 -18 26 -18 10 0 10 3 0 15 -10 12 -10 18 0 30 18 21 -4 45 -41 45 -28 0
-29 -2 -29 -45z m50 15 c0 -5 -4 -10 -10 -10 -5 0 -10 5 -10 10 0 6 5 10 10
10 6 0 10 -4 10 -10z"/>
<path d="M1640 1705 c0 -45 0 -45 36 -45 21 0 33 4 29 10 -3 6 -15 10 -26 10
-27 0 -14 20 14 21 20 1 20 2 2 6 -34 8 -41 23 -12 23 15 0 27 5 27 10 0 6
-16 10 -35 10 -35 0 -35 0 -35 -45z"/>
<path d="M1750 1705 c0 -43 1 -45 30 -45 17 0 30 5 30 10 0 6 -9 10 -20 10
-16 0 -20 7 -20 35 0 19 -4 35 -10 35 -5 0 -10 -20 -10 -45z"/>
<path d="M1862 1723 c-5 -16 -13 -35 -16 -43 -5 -12 3 -15 39 -15 25 0 45 1
45 2 0 2 -7 21 -16 43 -19 47 -38 51 -52 13z m32 -18 c3 -8 1 -15 -4 -15 -6 0
-10 7 -10 15 0 8 2 15 4 15 2 0 6 -7 10 -15z"/>
<path d="M1970 1740 c0 -5 5 -10 10 -10 6 0 10 -16 10 -35 0 -19 5 -35 10 -35
6 0 10 16 10 35 0 24 5 35 15 35 8 0 15 5 15 10 0 6 -16 10 -35 10 -19 0 -35
-4 -35 -10z"/>
<path d="M2080 1705 c0 -25 5 -45 10 -45 6 0 10 20 10 45 0 25 -4 45 -10 45
-5 0 -10 -20 -10 -45z"/>
<path d="M2164 1742 c-21 -13 -25 -49 -9 -66 32 -31 85 -11 85 33 0 29 -50 51
-76 33z m49 -24 c7 -21 -4 -38 -24 -38 -14 0 -19 7 -19 25 0 18 5 25 19 25 11
0 21 -6 24 -12z"/>
<path d="M2280 1705 c0 -25 5 -45 10 -45 6 0 10 12 10 26 l0 27 21 -27 c29
-37 39 -32 39 19 0 25 -4 45 -10 45 -5 0 -10 -12 -10 -27 l-1 -28 -20 28 c-29
38 -39 34 -39 -18z"/>
<path d="M2413 1739 c-14 -14 -6 -39 12 -39 8 0 17 -5 21 -11 4 -7 -2 -9 -14
-7 -12 2 -22 -1 -24 -7 -5 -15 54 -18 63 -3 13 21 11 26 -18 42 -27 15 -27 15
-5 16 13 0 20 4 17 10 -8 13 -38 13 -52 -1z"/>
<path d="M2520 1705 c0 -25 5 -45 10 -45 6 0 10 9 10 20 0 13 7 20 20 20 13 0
20 -7 20 -20 0 -11 5 -20 10 -20 6 0 10 20 10 45 0 25 -4 45 -10 45 -5 0 -10
-7 -10 -15 0 -8 -9 -15 -20 -15 -11 0 -20 7 -20 15 0 8 -4 15 -10 15 -5 0 -10
-20 -10 -45z"/>
<path d="M2640 1705 c0 -33 4 -45 15 -45 11 0 15 12 15 45 0 33 -4 45 -15 45
-11 0 -15 -12 -15 -45z"/>
<path d="M2710 1705 c0 -33 4 -45 15 -45 8 0 15 7 15 15 0 8 6 15 14 15 7 0
19 7 26 15 18 21 -4 45 -41 45 -28 0 -29 -2 -29 -45z m50 15 c0 -5 -4 -10 -10
-10 -5 0 -10 5 -10 10 0 6 5 10 10 10 6 0 10 -4 10 -10z"/>
<path d="M2902 1738 c-30 -30 -4 -83 39 -76 34 5 36 27 2 25 -22 -2 -28 2 -28
18 0 16 6 20 28 18 18 -1 27 2 24 10 -5 17 -50 20 -65 5z"/>
<path d="M3022 1738 c-16 -16 -15 -53 2 -68 21 -16 56 -9 72 15 27 41 -39 88
-74 53z m56 -36 c3 -16 -2 -22 -16 -22 -22 0 -32 17 -24 38 7 20 37 9 40 -16z"/>
<path d="M3162 1723 c-5 -16 -13 -35 -16 -43 -5 -12 3 -15 39 -15 25 0 45 1
45 2 0 2 -7 21 -16 43 -19 47 -38 51 -52 13z m32 -18 c3 -8 1 -15 -4 -15 -6 0
-10 7 -10 15 0 8 2 15 4 15 2 0 6 -7 10 -15z"/>
<path d="M3284 1743 c-21 -15 -25 -50 -8 -67 17 -18 71 -18 66 -1 -2 6 -14 9
-27 7 -21 -3 -25 1 -25 23 0 24 3 27 25 22 16 -3 24 0 22 7 -4 13 -38 19 -53
9z"/>
<path d="M3390 1705 c0 -25 5 -45 10 -45 6 0 10 9 10 20 0 13 7 20 20 20 13 0
20 -7 20 -20 0 -11 5 -20 10 -20 6 0 10 20 10 45 0 25 -4 45 -10 45 -5 0 -10
-7 -10 -15 0 -8 -9 -15 -20 -15 -11 0 -20 7 -20 15 0 8 -4 15 -10 15 -5 0 -10
-20 -10 -45z"/>
</g>
</svg>
